<svg width="598" height="598" viewBox="0 0 598 598" fill="none" xmlns="http://www.w3.org/2000/svg">
<path d="M113.835 502.619C212.505 557.288 372.482 557.288 471.152 502.619C569.822 447.95 569.822 359.302 471.152 304.633C372.482 249.964 212.505 249.964 113.835 304.621C15.1653 359.278 15.1653 447.938 113.835 502.619Z" fill="#407BFF" fill-opacity="0.15"/>
<path d="M515.667 204.181C513.538 203.786 511.768 202.77 508.73 202.447C506.633 202.389 504.581 201.822 502.75 200.796C500.358 199.493 495.347 193.429 491.257 187.306C486.917 180.311 483.806 172.626 482.06 164.582C480.326 154.846 479.991 140.662 479.321 134.957C478.651 129.252 476.271 127.589 473.173 126.298C469.526 124.779 465.71 126.979 465.674 135.232C465.836 146.593 467.26 157.901 469.92 168.947C472.119 177.09 475.651 184.813 480.373 191.803C484.679 198.309 489.116 202.567 494.725 207.996C496.268 209.467 497.046 210.939 499.665 214.084C500.678 215.45 501.887 216.659 503.253 217.672C505 218.83 506.905 219.728 508.91 220.339C511.443 221.125 514.14 221.215 516.72 220.602C518.137 220.259 519.456 219.592 520.571 218.653C521.685 217.703 522.426 216.389 522.664 214.945C522.736 214.662 522.732 214.365 522.652 214.084C522.393 213.621 521.964 213.278 521.456 213.127C518.729 211.931 515.608 211.118 513.024 209.671C510.847 208.475 509.436 207.279 509.95 207.123C510.465 206.968 511.649 207.769 513.825 207.829C516.002 207.889 517.988 206.717 517.928 205.557C517.868 204.396 517.796 204.576 515.667 204.181Z" fill="#FFA8A7"/>
<path d="M466.847 161.771C466.847 161.771 464.861 145.948 464.347 137.157C463.833 128.367 466.524 125.819 469.825 123.619C477.108 123.056 481.282 130.675 482.514 135.758C483.746 140.841 484.38 153.507 484.38 161.747C484.38 169.987 495.897 193.752 495.897 193.752C495.897 193.752 490.085 196.443 488.327 201.717C488.327 201.717 479.082 190.81 475.649 185.248C469.358 175.023 467.636 168.768 466.847 161.771Z" fill="#1B7357"/>
<path opacity="0.1" d="M466.847 161.771C466.847 161.771 464.861 145.948 464.347 137.157C463.833 128.367 466.524 125.819 469.825 123.619C477.108 123.056 481.282 130.675 482.514 135.758C483.746 140.841 484.38 153.507 484.38 161.747C484.38 169.987 495.897 193.752 495.897 193.752C495.897 193.752 490.085 196.443 488.327 201.717C488.327 201.717 479.082 190.81 475.649 185.248C469.358 175.023 467.636 168.768 466.847 161.771Z" fill="black"/>
<path d="M436.54 346.673H446.455V329.713H436.54V346.673Z" fill="#FFA8A7"/>
<path d="M468.856 334.342L478.759 334.689L479.261 316.737L469.358 316.39L468.856 334.342Z" fill="#FFA8A7"/>
<path d="M446.455 341.781V340.358C447.4 340.776 449.6 349.184 453.535 352.76C456.657 355.619 460.926 358.908 462.015 362.089C463.103 365.27 456.035 367.22 453.152 366.706C449.756 366.096 443.883 363.716 442.388 361.503C440.893 359.29 440.224 356.013 439.028 354.387C437.832 352.76 435.057 350.954 434.411 349.077C434.052 348.048 434.411 345.788 434.973 343.874C435.535 341.96 435.93 340.202 436.528 340.358V341.446C437.946 342.549 439.695 343.139 441.491 343.12C442.951 343.168 446.467 342.881 446.455 341.781Z" fill="#212121"/>
<path d="M478.866 331.627C479.381 331.627 479.799 332.368 480.935 333.6C482.632 335.311 484.6 336.73 486.76 337.798C490.48 339.652 497.691 342.51 500.957 343.982C502.99 344.902 502.894 347.366 500.789 348.766C498.684 350.165 493.613 351.158 487.478 349.818C484.153 349.065 479.811 345.991 477.072 346.158C474.334 346.326 469.191 346.29 467.17 344.891C465.148 343.491 465.974 340.513 466.524 337.954C467.146 335.155 468.043 330.873 468.975 331.065V331.95C470.171 333.756 476.235 334.485 478.854 333.146L478.866 331.627Z" fill="#212121"/>
<path d="M437.198 195.235C437.198 204.695 437.198 263.778 437.198 263.778C436.971 266.493 434.949 271.217 434.411 282.806C433.741 297.015 433.215 335.968 433.215 335.968C433.215 335.968 440.618 340.752 447.172 336.136C447.172 336.136 455.975 280.283 457.745 266.206C459.3 253.923 461.919 220.542 461.919 220.542L467.899 270.774C467.899 270.774 466.284 280.008 465.938 286.526C465.591 293.044 465.938 326.795 465.938 326.795C465.938 326.795 473.759 331.292 479.512 328.218C479.512 328.218 486.294 276.097 487.322 270.212C488.351 264.328 483.603 195.175 483.603 195.175L437.198 195.235Z" fill="#212121"/>
<path d="M461.847 220.542C466.972 218.944 471.683 216.241 475.649 212.625C475.649 212.625 472.994 217.612 465.077 222.253L465.244 249.258L461.847 220.542Z" fill="black"/>
<path d="M446.718 126.776C445.328 126.962 443.958 127.279 442.628 127.721C439.901 128.785 438.657 132.134 438.011 135.088C437.464 137.562 437.191 140.089 437.198 142.623V195.247C444.147 202.806 468.366 206.322 483.543 195.247C483.543 195.247 483.244 148.77 482.108 141.14C480.134 127.876 473.736 123.2 467.409 123.642L452.088 125.819L446.718 126.776Z" fill="#1B7357"/>
<path d="M452.578 149.703C452.578 149.703 460.879 149.368 464.287 148.041V146.378C460.879 147.706 452.578 148.041 452.578 148.041V149.703Z" fill="#37474F"/>
<path d="M466.595 133.474L452.088 122.793L452.028 120.162C452.028 120.162 448.954 120.629 448.201 126.513C450.48 131.589 454.391 135.757 459.312 138.353L462.326 132.983L466.595 133.474Z" fill="#1B7357"/>
<path opacity="0.1" d="M466.595 133.474L452.088 122.793L452.028 120.162C452.028 120.162 448.954 120.629 448.201 126.513C450.48 131.589 454.391 135.757 459.312 138.353L462.326 132.983L466.595 133.474Z" fill="black"/>
<path d="M467.397 120.796C468.33 120.935 469.227 121.258 470.035 121.744C470.844 122.23 471.548 122.871 472.109 123.631C473.544 126.023 473.209 135.052 473.209 135.052L469.394 130.675L466.595 133.474C466.894 130.448 467.409 125.377 467.409 125.377L467.397 120.796Z" fill="#1B7357"/>
<path opacity="0.1" d="M467.397 120.796C468.33 120.935 469.227 121.258 470.035 121.744C470.844 122.23 471.548 122.871 472.109 123.631C473.544 126.023 473.209 135.052 473.209 135.052L469.394 130.675L466.595 133.474C466.894 130.448 467.409 125.377 467.409 125.377L467.397 120.796Z" fill="black"/>
<path d="M445.917 101.66C445.917 101.66 448.189 112.424 449.11 114.134C449.713 115.223 450.717 116.034 451.909 116.395L451.753 108.86L445.917 101.66Z" fill="#212121"/>
<path d="M448.775 86.3153C447.979 86.2229 447.172 86.3127 446.416 86.5779C445.66 86.8431 444.974 87.2768 444.41 87.8462C442.532 89.7718 443.572 95.7757 445.917 101.66L450.21 102.15L448.775 86.3153Z" fill="#212121"/>
<path d="M451.502 102.15C450.641 102.665 449.409 100.954 448.344 99.9019C447.28 98.8494 443.812 97.2707 442.089 100.918C440.367 104.566 443.608 109.542 446.347 110.391C451.047 111.874 451.753 108.86 451.753 108.86L452.112 125.819C452.112 125.819 458.247 132.337 466.595 133.474L467.409 125.377V120.21C469.504 120.544 471.629 120.652 473.747 120.533C477.216 119.995 479.393 117.268 480.433 113.524C482.12 107.544 482.765 102.653 481.33 90.8003C479.763 77.8357 464.682 77.6443 456.549 82.823C448.416 88.0017 451.502 102.15 451.502 102.15Z" fill="#FFA8A7"/>
<path d="M451.502 103.609C451.059 103.609 449.421 100.883 448.345 99.9019C446.861 98.5504 448.775 86.3153 448.775 86.3153C450.557 77.9433 465.112 76.7473 473.245 79.4144C477.467 80.718 480.194 82.6197 480.039 86.1838C479.5 88.5758 474.346 89.7718 472.384 90.0229C466.883 90.6927 458.403 89.2096 457.231 89.0542C455.64 88.8389 455.198 89.3412 454.336 93.575C453.583 97.2826 452.949 103.574 451.502 103.609Z" fill="#212121"/>
<path d="M448.787 87.308L443.572 84.5094C443.739 84.1581 443.975 83.8442 444.266 83.5868C444.557 83.3294 444.898 83.1339 445.267 83.012C445.636 82.8901 446.026 82.8444 446.413 82.8777C446.8 82.911 447.176 83.0226 447.519 83.2057C448.217 83.5954 448.739 84.239 448.975 85.0029C449.211 85.7669 449.144 86.5924 448.787 87.308Z" fill="#212121"/>
<path d="M467.397 120.21C467.397 120.21 459.683 118.655 456.98 117.22C455.407 116.384 454.12 115.097 453.284 113.524C453.688 115.104 454.408 116.584 455.401 117.878C457.374 120.401 467.433 122.267 467.433 122.267L467.397 120.21Z" fill="#F28F8F"/>
<path d="M466.033 101.66C466.022 101.965 465.92 102.26 465.742 102.508C465.563 102.756 465.316 102.946 465.03 103.054C464.745 103.162 464.434 103.184 464.136 103.116C463.838 103.049 463.567 102.895 463.356 102.674C463.145 102.453 463.003 102.175 462.949 101.875C462.895 101.574 462.931 101.264 463.052 100.984C463.173 100.704 463.374 100.465 463.63 100.298C463.886 100.131 464.185 100.043 464.49 100.045C464.698 100.05 464.902 100.096 465.092 100.179C465.282 100.263 465.453 100.383 465.596 100.533C465.74 100.683 465.852 100.86 465.927 101.053C466.002 101.246 466.038 101.453 466.033 101.66Z" fill="#212121"/>
<path d="M464.395 95.7996L461.082 97.6295C460.845 97.1757 460.793 96.6476 460.938 96.1567C461.084 95.6657 461.414 95.2504 461.859 94.9983C462.077 94.8791 462.317 94.8052 462.564 94.7811C462.812 94.7571 463.061 94.7832 463.298 94.8581C463.535 94.9329 463.754 95.0549 463.943 95.2167C464.131 95.3785 464.285 95.5768 464.395 95.7996Z" fill="#212121"/>
<path d="M466.703 110.917L470.231 112.245C470.159 112.484 470.038 112.706 469.876 112.898C469.715 113.089 469.516 113.245 469.293 113.357C469.069 113.469 468.824 113.534 468.575 113.548C468.325 113.563 468.075 113.526 467.839 113.441C467.355 113.256 466.963 112.886 466.75 112.413C466.537 111.94 466.52 111.402 466.703 110.917Z" fill="#F28F8F"/>
<path d="M479.835 97.0913L476.809 94.771C476.951 94.5657 477.132 94.3913 477.344 94.2588C477.555 94.1262 477.791 94.0382 478.037 94.0001C478.284 93.962 478.535 93.9747 478.776 94.0373C479.018 94.1 479.244 94.2113 479.441 94.3644C479.839 94.6847 480.101 95.1442 480.174 95.6502C480.248 96.1562 480.126 96.6711 479.835 97.0913Z" fill="#212121"/>
<path d="M478.902 101.206C478.891 101.511 478.789 101.806 478.611 102.054C478.432 102.302 478.185 102.491 477.899 102.6C477.614 102.708 477.303 102.73 477.005 102.662C476.707 102.594 476.436 102.441 476.225 102.22C476.014 101.999 475.872 101.721 475.818 101.42C475.764 101.12 475.8 100.81 475.921 100.529C476.042 100.249 476.243 100.01 476.499 99.8436C476.755 99.6767 477.054 99.5888 477.359 99.5909C477.567 99.5956 477.771 99.641 477.961 99.7247C478.151 99.8084 478.322 99.9286 478.465 100.079C478.609 100.229 478.721 100.405 478.796 100.599C478.871 100.792 478.907 100.998 478.902 101.206Z" fill="#212121"/>
<path d="M470.53 98.3112L471.045 107.616L475.9 105.966L470.53 98.3112Z" fill="#F28F8F"/>
<path d="M455.592 91.9365C455.592 91.9365 470.973 100.524 481.665 93.9817C492.357 87.4396 478.508 81.8303 478.508 81.8303L455.592 91.9365Z" fill="#212121"/>
<path d="M478.4 67.1674C469.239 65.7441 459.264 65.3136 447.758 70.9108C436.253 76.5081 433.705 83.9831 433.705 83.9831C433.705 83.9831 445.45 87.1764 455.006 84.4376C464.562 81.6988 478.4 67.1674 478.4 67.1674Z" fill="#1B7357"/>
<path opacity="0.4" d="M478.4 67.1674C469.239 65.7441 459.264 65.3136 447.758 70.9108C436.253 76.5081 433.705 83.9831 433.705 83.9831C433.705 83.9831 445.45 87.1764 455.006 84.4376C464.562 81.6988 478.4 67.1674 478.4 67.1674Z" fill="white"/>
<path d="M440.128 87.5233C440.128 87.5233 434.244 85.4542 433.705 83.9353C438.373 83.8782 442.995 83.008 447.364 81.3639C455.006 78.5892 462.912 70.1932 471.547 67.8371C480.182 65.481 483.818 69.4039 483.818 69.4039C482.683 73.0899 481.041 76.5999 478.938 79.833C478.938 79.833 476.271 85.9565 466.153 88.5399C456.035 91.1232 440.128 87.5233 440.128 87.5233Z" fill="#1B7357"/>
<path d="M440.128 87.5233L440.606 89.1379C440.78 89.6722 441.074 90.1594 441.466 90.5617C441.858 90.9641 442.337 91.2708 442.867 91.4581C450.614 93.5471 458.801 93.3519 466.44 90.896C473.616 88.7073 476.761 86.4828 478.041 84.916C478.509 84.4822 478.863 83.94 479.071 83.3372C479.28 82.7345 479.337 82.0896 479.237 81.4596L478.998 79.8689C478.998 79.8689 476.797 83.1938 465.172 86.9014C453.547 90.609 440.128 87.5233 440.128 87.5233Z" fill="#37474F"/>
<path d="M472.42 71.1979C472.348 72.956 470.459 76.544 467.947 75.348V79.8569C467.947 82.6795 469.609 83.4449 472.276 82.5479C473.61 82.113 474.774 81.2734 475.608 80.1459C476.442 79.0184 476.904 77.6591 476.929 76.257C476.929 75.3958 476.929 72.37 476.929 72.37C474.955 75.2643 472.42 71.8916 472.42 71.1979Z" fill="#FAFAFA"/>
<path d="M287.04 120.174L146.797 201.143C145.29 202.127 144.036 203.451 143.136 205.01C142.237 206.568 141.717 208.316 141.618 210.113V366.442C141.715 368.24 142.234 369.989 143.134 371.547C144.034 373.106 145.289 374.43 146.797 375.412L287.04 456.394C288.645 457.208 290.419 457.632 292.219 457.632C294.018 457.632 295.793 457.208 297.397 456.394L437.736 375.412C439.244 374.43 440.499 373.106 441.399 371.547C442.299 369.989 442.818 368.24 442.915 366.442V210.113C442.816 208.316 442.297 206.568 441.397 205.01C440.497 203.451 439.243 202.127 437.736 201.143L297.481 120.174C295.865 119.346 294.076 118.914 292.261 118.914C290.445 118.914 288.656 119.346 287.04 120.174Z" fill="#37474F"/>
<path d="M292.267 289.336V457.625C290.467 457.675 288.684 457.263 287.088 456.429L146.833 375.46C145.326 374.477 144.072 373.152 143.172 371.594C142.272 370.035 141.752 368.287 141.654 366.49V210.113C141.751 208.421 142.218 206.771 143.022 205.279C143.826 203.787 144.947 202.49 146.307 201.478C143.986 203.141 144.166 205.58 146.833 207.123L287.04 288.092C288.646 288.949 290.446 289.378 292.267 289.336Z" fill="#212121"/>
<path d="M437.736 201.143L297.481 120.174C295.876 119.36 294.102 118.936 292.302 118.936C290.503 118.936 288.729 119.36 287.124 120.174L146.881 201.143C144.022 202.794 144.022 205.473 146.881 207.123L287.04 288.092C288.645 288.907 290.419 289.331 292.219 289.331C294.018 289.331 295.793 288.907 297.397 288.092L437.736 207.123C440.547 205.473 440.547 202.794 437.736 201.143Z" fill="#455A64"/>
<path d="M304.561 295.197L430.56 222.456C431.983 221.631 433.143 222.301 433.143 223.951V363.883C433.094 364.781 432.835 365.654 432.386 366.433C431.937 367.212 431.312 367.875 430.56 368.368L304.561 441.049C303.138 441.874 301.978 441.216 301.978 439.554V299.682C302.025 298.783 302.283 297.909 302.732 297.129C303.181 296.35 303.808 295.688 304.561 295.197Z" fill="#212121"/>
<path d="M304.37 299.682C304.419 299.208 304.568 298.749 304.807 298.337C305.046 297.925 305.37 297.568 305.757 297.29L430.739 225.123V363.859C430.688 364.333 430.538 364.79 430.299 365.202C430.06 365.614 429.738 365.971 429.352 366.251L304.37 438.406V299.682Z" fill="#37474F"/>
<path d="M302.421 307.647L329.773 291.824C330.047 291.671 330.356 291.591 330.67 291.591C330.984 291.591 331.293 291.671 331.567 291.824L335.992 294.383L307.288 310.41L302.421 307.647Z" fill="#455A64"/>
<path d="M336.435 295.412V314.261C336.403 314.798 336.246 315.32 335.976 315.785C335.706 316.25 335.33 316.646 334.88 316.94L307.276 332.883V310.446L334.88 294.515C335.729 294.025 336.435 294.419 336.435 295.412Z" fill="#212121"/>
<path d="M302.421 307.647L307.276 310.446V332.895L302.421 330.084V307.647Z" fill="black"/>
<path d="M318.973 312.276C320.313 311.498 321.365 312.12 321.365 313.675C321.322 314.514 321.083 315.332 320.668 316.063C320.253 316.794 319.672 317.418 318.973 317.885C317.634 318.65 316.581 318.028 316.581 316.474C316.622 315.635 316.86 314.818 317.276 314.089C317.691 313.36 318.273 312.738 318.973 312.276Z" fill="#455A64"/>
<path d="M328.697 306.666C330.036 305.889 331.089 306.511 331.089 308.066C331.046 308.905 330.807 309.723 330.392 310.454C329.976 311.185 329.396 311.809 328.697 312.276C327.345 313.041 326.305 312.419 326.305 310.864C326.348 310.026 326.586 309.21 327.002 308.481C327.417 307.752 327.998 307.131 328.697 306.666Z" fill="#455A64"/>
<path d="M301.966 307.91L295.245 311.797C294.336 312.322 293.304 312.598 292.255 312.598C291.205 312.598 290.174 312.322 289.265 311.797L284.349 308.963C284.077 308.804 283.767 308.72 283.452 308.72C283.137 308.72 282.827 308.804 282.555 308.963L278.154 311.498L289.265 317.406C290.174 317.931 291.205 318.208 292.255 318.208C293.304 318.208 294.336 317.931 295.245 317.406L306.822 310.721L301.966 307.91Z" fill="#455A64"/>
<path d="M279.23 334.055L289.265 339.855C290.174 340.38 291.205 340.657 292.255 340.657C293.304 340.657 294.335 340.38 295.245 339.855L306.822 333.17V310.721L295.245 317.406C294.335 317.931 293.304 318.208 292.255 318.208C291.205 318.208 290.174 317.931 289.265 317.406L279.23 311.618C278.381 311.127 277.675 311.522 277.675 312.515V331.364C277.705 331.903 277.862 332.427 278.132 332.895C278.402 333.362 278.778 333.759 279.23 334.055Z" fill="#37474F"/>
<path d="M292.29 340.645C293.333 340.647 294.357 340.37 295.257 339.843L306.834 333.158V310.721L295.257 317.406C294.357 317.933 293.333 318.21 292.29 318.208V340.645Z" fill="#212121"/>
<path d="M302.421 403.052L329.773 387.265C330.045 387.106 330.355 387.023 330.67 387.023C330.985 387.023 331.295 387.106 331.567 387.265L335.992 389.824L307.288 405.851L302.421 403.052Z" fill="#455A64"/>
<path d="M336.435 390.781V409.63C336.405 410.169 336.248 410.693 335.978 411.161C335.708 411.628 335.332 412.026 334.88 412.321L307.276 428.252V405.815L334.88 389.896C335.729 389.394 336.435 389.788 336.435 390.781Z" fill="#212121"/>
<path d="M302.421 403.016L307.276 405.815V428.252L302.421 425.453V403.016Z" fill="black"/>
<path d="M318.973 407.633C320.313 406.855 321.365 407.489 321.365 409.032C321.325 409.872 321.087 410.691 320.672 411.423C320.256 412.154 319.674 412.777 318.973 413.242C317.634 414.019 316.581 413.397 316.581 411.843C316.624 411.003 316.863 410.185 317.278 409.454C317.694 408.723 318.274 408.099 318.973 407.633Z" fill="#455A64"/>
<path d="M328.697 402.023C330.036 401.246 331.089 401.88 331.089 403.423C331.047 404.263 330.81 405.081 330.394 405.813C329.979 406.544 329.397 407.167 328.697 407.633C327.345 408.41 326.305 407.788 326.305 406.233C326.347 405.394 326.585 404.575 327.001 403.844C327.416 403.113 327.997 402.49 328.697 402.023Z" fill="#455A64"/>
<path d="M301.966 403.279L295.245 407.166C294.336 407.691 293.304 407.967 292.255 407.967C291.205 407.967 290.174 407.691 289.265 407.166L284.349 404.332C284.077 404.173 283.767 404.09 283.452 404.09C283.137 404.09 282.827 404.173 282.555 404.332L278.154 406.867L289.265 412.776C290.174 413.3 291.205 413.577 292.255 413.577C293.304 413.577 294.336 413.3 295.245 412.776L306.822 406.09L301.966 403.279Z" fill="#455A64"/>
<path d="M279.23 429.424L289.265 435.212C290.174 435.737 291.205 436.014 292.255 436.014C293.304 436.014 294.335 435.737 295.245 435.212L306.822 428.527V406.09L295.245 412.775C294.335 413.3 293.304 413.577 292.255 413.577C291.205 413.577 290.174 413.3 289.265 412.775L279.23 406.987C278.381 406.485 277.675 406.891 277.675 407.884V426.733C277.707 427.271 277.865 427.795 278.134 428.262C278.404 428.729 278.78 429.127 279.23 429.424Z" fill="#37474F"/>
<path d="M292.29 436.014C293.332 436.01 294.355 435.733 295.257 435.212L306.834 428.527V406.09L295.257 412.775C294.352 413.291 293.331 413.567 292.29 413.577V436.014Z" fill="#212121"/>
<path d="M387.169 312.072L387.982 310.661L383.043 307.803H382.947C379 305.602 373.595 305.949 367.615 309.405C355.547 316.378 345.752 333.325 345.752 347.271C345.752 354.112 348.144 358.943 351.947 361.288L352.09 361.371L352.234 361.455L357.173 364.314L357.999 362.866C361.391 362.712 364.686 361.686 367.567 359.888C379.646 352.916 389.43 335.968 389.43 322.023C389.55 318.566 388.771 315.137 387.169 312.072Z" fill="#212121"/>
<path d="M388.652 346.745C397.19 331.958 397.192 315.976 388.657 311.048C380.122 306.121 366.282 314.113 357.745 328.9C349.208 343.688 349.205 359.67 357.74 364.597C366.275 369.525 380.115 361.532 388.652 346.745Z" fill="#212121"/>
<path d="M387.862 346.298C396.4 331.511 396.402 315.529 387.867 310.601C379.332 305.674 365.492 313.667 356.955 328.454C348.418 343.241 348.416 359.223 356.95 364.151C365.485 369.078 379.325 361.085 387.862 346.298Z" fill="#37474F"/>
<path d="M374.659 320.528C374.169 320.707 373.87 320.301 373.989 319.619L374.994 313.806C375.045 313.48 375.171 313.17 375.362 312.9C375.552 312.63 375.803 312.408 376.094 312.252C376.573 312.072 376.884 312.479 376.764 313.161L375.759 318.961C375.71 319.29 375.585 319.603 375.394 319.874C375.203 320.146 374.951 320.37 374.659 320.528Z" fill="#1B7357"/>
<path d="M366.419 326.807C366.363 326.836 366.301 326.854 366.238 326.857C366.175 326.861 366.112 326.851 366.053 326.829C365.994 326.806 365.941 326.771 365.897 326.726C365.852 326.681 365.818 326.627 365.797 326.568L364.17 322.765C364.099 322.446 364.107 322.116 364.192 321.801C364.278 321.486 364.438 321.197 364.66 320.959C365.127 320.408 365.653 320.337 365.856 320.779L367.483 324.582C367.554 324.899 367.546 325.228 367.461 325.54C367.375 325.853 367.215 326.14 366.993 326.376C366.847 326.572 366.647 326.722 366.419 326.807Z" fill="#1B7357"/>
<path d="M360.128 337.631C360.041 337.647 359.951 337.647 359.864 337.631L356.276 337.284C355.846 337.284 355.714 336.638 355.977 335.932C356.241 335.227 356.803 334.736 357.173 334.736L360.761 335.083C361.18 335.083 361.324 335.729 361.06 336.435C360.992 336.686 360.874 336.921 360.714 337.127C360.554 337.332 360.355 337.503 360.128 337.631Z" fill="#1B7357"/>
<path d="M353.932 352.114C353.55 352.258 353.263 352.055 353.239 351.576C353.238 351.237 353.313 350.903 353.458 350.597C353.603 350.291 353.814 350.021 354.076 349.806L358.322 346.565C358.824 346.182 359.266 346.35 359.302 346.948C359.3 347.286 359.224 347.62 359.08 347.925C358.935 348.231 358.725 348.502 358.465 348.718L354.207 351.959C354.125 352.026 354.032 352.079 353.932 352.114Z" fill="#1B7357"/>
<path d="M358.07 361.826C357.998 361.868 357.915 361.89 357.831 361.89C357.747 361.89 357.665 361.868 357.592 361.826C357.269 361.575 357.317 360.833 357.7 360.175L360.953 354.578C361.336 353.92 361.91 353.597 362.233 353.849C362.555 354.1 362.508 354.853 362.125 355.511L358.884 361.096C358.696 361.419 358.412 361.675 358.07 361.826Z" fill="#1B7357"/>
<path d="M367.363 362.699C366.873 362.878 366.574 362.472 366.694 361.79L367.698 355.989C367.747 355.662 367.871 355.351 368.059 355.079C368.248 354.807 368.497 354.583 368.787 354.423C369.277 354.243 369.576 354.65 369.456 355.332L368.452 361.144C368.4 361.469 368.276 361.778 368.087 362.047C367.898 362.317 367.651 362.54 367.363 362.699Z" fill="#1B7357"/>
<path d="M378.223 354.423C378.166 354.452 378.104 354.468 378.041 354.471C377.977 354.474 377.914 354.464 377.855 354.44C377.795 354.416 377.742 354.38 377.699 354.333C377.655 354.287 377.622 354.232 377.601 354.171L375.975 350.428C375.904 350.112 375.911 349.783 375.997 349.47C376.082 349.157 376.243 348.87 376.465 348.634C376.931 348.084 377.47 348 377.661 348.455L379.276 352.246C379.346 352.564 379.339 352.895 379.253 353.209C379.168 353.524 379.007 353.813 378.785 354.052C378.629 354.217 378.437 354.344 378.223 354.423Z" fill="#1B7357"/>
<path d="M386.523 340.142C386.436 340.16 386.347 340.16 386.26 340.142L382.672 339.796C382.254 339.796 382.122 339.15 382.385 338.444C382.648 337.738 383.198 337.248 383.581 337.248L387.169 337.595C387.6 337.595 387.731 338.241 387.468 338.946C387.32 339.453 386.981 339.881 386.523 340.142Z" fill="#1B7357"/>
<path d="M384.837 328.553C384.466 328.697 384.179 328.481 384.143 328.003C384.145 327.667 384.222 327.335 384.366 327.031C384.511 326.727 384.721 326.459 384.98 326.245L389.238 322.992C389.741 322.609 390.171 322.788 390.219 323.386C390.21 323.722 390.132 324.052 389.987 324.355C389.843 324.657 389.637 324.927 389.382 325.145L385.112 328.398C385.028 328.462 384.935 328.515 384.837 328.553Z" fill="#1B7357"/>
<path d="M381.691 321.198C381.619 321.24 381.536 321.262 381.452 321.262C381.368 321.262 381.286 321.24 381.213 321.198C380.89 320.947 380.938 320.205 381.321 319.547L384.562 313.95C384.945 313.292 385.519 312.969 385.854 313.22C386.188 313.472 386.129 314.225 385.746 314.883L382.493 320.468C382.309 320.79 382.029 321.045 381.691 321.198Z" fill="#1B7357"/>
<path d="M383.019 324.403C380.938 321.317 376.967 320.695 372.411 323.327C365.713 327.202 360.271 336.626 360.271 344.364C360.271 349.902 363.046 353.059 367.076 353.023L376.417 353.239L388.174 331.711L383.019 324.403Z" fill="#212121"/>
<path d="M380.328 331.113C377.695 332.841 375.506 335.166 373.939 337.899C372.373 340.631 371.472 343.694 371.31 346.84C371.31 352.617 375.365 354.949 380.364 352.067C382.999 350.348 385.191 348.033 386.764 345.309C388.337 342.584 389.246 339.528 389.418 336.387C389.418 330.574 385.363 328.23 380.328 331.113Z" fill="#455A64"/>
<path d="M423.551 291.979C423.632 290.018 423.174 288.071 422.227 286.351C421.281 284.631 419.881 283.202 418.181 282.22L401.988 272.879H401.916C401.143 272.542 400.296 272.41 399.457 272.498C398.619 272.586 397.817 272.891 397.132 273.382C395.125 274.692 393.457 276.459 392.264 278.538C391.071 280.616 390.386 282.948 390.267 285.342C390.267 287.734 391.224 289.432 392.743 290.006H392.838L408.386 294.934C410.07 295.467 411.55 296.502 412.629 297.9C413.709 299.298 414.336 300.992 414.426 302.755L416.208 335.968C416.255 336.681 416.57 337.348 417.091 337.836C417.612 338.324 418.299 338.596 419.013 338.596C419.726 338.596 420.413 338.324 420.934 337.836C421.455 337.348 421.771 336.681 421.817 335.968L423.551 291.979Z" fill="#212121"/>
<path d="M428.288 141.523C428.288 141.523 408.135 171.506 404.75 178.886C403.614 181.385 402.633 182.701 406.724 186.911C410.814 191.121 425.86 203.655 427.331 205.533C428.802 207.41 428.742 210.317 429.878 212.888C431.014 215.459 429.711 222.336 430.739 226.57C431.768 230.804 442.867 224.585 442.867 213.761C442.867 207.685 443.07 204.193 439.363 201.335C435.655 198.476 420.227 180.393 420.227 180.393L434.244 159.259L428.288 141.523Z" fill="#FFA8A7"/>
<path d="M432.438 165.275C437.222 158.972 445.079 149.632 445.079 149.632C448.739 144.525 451.717 131.309 445.929 126.908C442.006 126.322 438.298 126.429 432.773 133.294C427.247 140.159 421.829 147.742 416.088 156.174C410.348 164.605 402.705 176.876 402.705 181.29C402.705 185.703 411.603 193.07 419.629 198.536C420.187 196.393 421.399 194.478 423.097 193.057C424.795 191.635 426.893 190.779 429.101 190.607L421.566 180.07C421.566 180.07 427.666 171.578 432.438 165.275Z" fill="#1B7357"/>
<path opacity="0.05" d="M432.438 165.275C437.222 158.972 445.079 149.632 445.079 149.632C448.739 144.525 451.717 131.309 445.929 126.908C442.006 126.322 438.298 126.429 432.773 133.294C427.247 140.159 421.829 147.742 416.088 156.174C410.348 164.605 402.705 176.876 402.705 181.29C402.705 185.703 411.603 193.07 419.629 198.536C420.187 196.393 421.399 194.478 423.097 193.057C424.795 191.635 426.893 190.779 429.101 190.607L421.566 180.07C421.566 180.07 427.666 171.578 432.438 165.275Z" fill="black"/>
<path d="M432.952 136.153C434.028 136.302 435.063 136.665 435.996 137.222C436.929 137.779 437.74 138.517 438.382 139.394L438.585 139.071C438.694 138.909 438.743 138.715 438.726 138.522C438.708 138.328 438.625 138.146 438.49 138.006C437.327 136.699 435.79 135.781 434.088 135.375C433.925 135.344 433.757 135.362 433.604 135.426C433.451 135.49 433.32 135.597 433.227 135.734L432.952 136.153Z" fill="#37474F"/>
<path d="M435.499 142.599C434.411 144.262 432.521 144.991 431.266 144.13C430.01 143.269 429.878 141.307 430.967 139.633C432.055 137.959 433.957 137.241 435.2 138.102C436.444 138.963 436.54 140.937 435.499 142.599Z" fill="#37474F"/>
<path d="M276.431 441.085L142.934 364.015L76.1852 402.55L209.683 479.62L276.431 441.085Z" fill="#1B7357"/>
<path opacity="0.15" d="M83.2057 402.55L209.683 475.506L269.411 441.025L142.934 368.069L83.2057 402.55ZM86.722 402.55L142.934 370.09L265.895 441.073L209.683 473.532L86.722 402.55Z" fill="black"/>
<g opacity="0.15">
<path opacity="0.15" d="M178.802 441.767C169.7 441.767 160.372 439.674 153.172 435.511C146.163 431.469 142.157 425.943 142.157 420.382C142.157 415.263 145.446 410.551 151.414 407.094C164.175 399.739 185.715 400.194 199.445 408.111C206.442 412.154 210.46 417.679 210.46 423.252C210.46 428.359 207.171 433.084 201.203 436.528C195.235 439.973 187.066 441.767 178.802 441.767ZM173.815 403.052C165.766 403.052 157.92 404.738 152.012 408.147C146.426 411.376 143.353 415.718 143.353 420.394C143.353 425.525 147.144 430.668 153.77 434.495C167.165 442.221 188.179 442.687 200.605 435.511C206.19 432.282 209.264 427.929 209.264 423.264C209.264 418.122 205.473 412.991 198.847 409.164C191.814 405.097 182.689 403.052 173.815 403.052Z" fill="black"/>
</g>
<g opacity="0.1">
<path opacity="0.1" d="M178.802 437.461C170.155 437.461 161.604 435.392 155.336 431.768C149.703 428.515 146.474 424.365 146.474 420.382C146.474 416.878 148.998 413.493 153.578 410.814C158.805 407.8 165.993 406.138 173.815 406.138C182.462 406.138 191.013 408.219 197.28 411.831C202.913 415.084 206.143 419.234 206.143 423.229C206.143 426.733 203.619 430.117 199.038 432.797C193.812 435.798 186.576 437.461 178.802 437.461Z" fill="black"/>
</g>
<path opacity="0.1" d="M202.65 466.44L165.957 445.115L168.899 445.498C171.525 445.834 174.169 446.001 176.817 446C185.74 445.839 194.494 443.534 202.339 439.279C208.834 435.535 215.388 428.826 215.388 422.296C215.374 420.018 214.868 417.77 213.905 415.706L213.115 413.995L253.301 437.329L248.9 439.877C248.158 440.307 247.704 440.834 247.704 441.384C247.752 441.718 247.888 442.034 248.098 442.299C248.308 442.563 248.585 442.768 248.9 442.891L253.313 445.438L216.703 466.44L212.888 464.203C211.889 463.703 210.788 463.442 209.671 463.442C208.554 463.442 207.452 463.703 206.454 464.203L202.65 466.44Z" fill="black"/>
<path d="M218.868 451.502C216.733 451.534 214.625 451.02 212.745 450.007C211.984 449.66 211.327 449.119 210.84 448.44C210.353 447.76 210.053 446.964 209.97 446.132C210.02 445.394 210.268 444.683 210.689 444.074C211.111 443.466 211.688 442.982 212.362 442.675C214.163 441.81 216.143 441.379 218.142 441.419C220.14 441.458 222.101 441.966 223.867 442.903C224.63 443.251 225.287 443.793 225.774 444.475C226.261 445.157 226.561 445.956 226.642 446.79C226.593 447.528 226.345 448.24 225.924 448.849C225.503 449.457 224.924 449.94 224.25 450.246C222.591 451.114 220.739 451.546 218.868 451.502Z" fill="#1B7357"/>
<path opacity="0.1" d="M139.585 429.627L99.4833 406.52L103.885 403.985C104.217 403.895 104.511 403.699 104.721 403.425C104.931 403.152 105.044 402.817 105.044 402.472C105.044 402.127 104.931 401.792 104.721 401.519C104.511 401.245 104.217 401.049 103.885 400.959L99.4713 398.412L136.021 377.601L139.824 379.802C140.821 380.301 141.921 380.56 143.036 380.56C144.15 380.56 145.25 380.301 146.247 379.802L150.062 377.601L186.743 398.711L183.777 398.328C181.148 397.992 178.499 397.824 175.848 397.825C167.153 397.825 156.772 400.445 150.002 404.356C141.559 409.235 137.277 414.462 137.277 419.904C137.304 422.65 137.827 425.368 138.82 427.929L139.585 429.627Z" fill="black"/>
<path d="M134.801 403.196C132.662 403.226 130.551 402.712 128.666 401.701C127.905 401.351 127.25 400.808 126.765 400.126C126.281 399.444 125.983 398.646 125.903 397.814C125.952 397.077 126.201 396.367 126.622 395.76C127.044 395.154 127.622 394.673 128.295 394.369C130.096 393.5 132.076 393.068 134.075 393.108C136.074 393.147 138.035 393.657 139.8 394.596C140.561 394.946 141.216 395.489 141.701 396.171C142.185 396.853 142.483 397.65 142.563 398.483C142.512 399.22 142.263 399.929 141.842 400.535C141.421 401.142 140.844 401.623 140.171 401.928C138.519 402.803 136.67 403.24 134.801 403.196Z" fill="#1B7357"/>
<path d="M276.431 441.085V457.303L209.683 495.838V479.62L276.431 441.085Z" fill="#1B7357"/>
<g opacity="0.4">
<path opacity="0.4" d="M276.431 441.085V457.303L209.683 495.838V479.62L276.431 441.085Z" fill="white"/>
</g>
<path d="M209.683 483.232L230.756 471.511L209.683 484.213V483.232Z" fill="#1B7357"/>
<path d="M276.432 448.787L269.399 453.248L276.432 449.6V448.787Z" fill="#1B7357"/>
<path d="M276.431 452.65L241.305 473.532L276.431 453.846V452.65Z" fill="#1B7357"/>
<path d="M209.683 487.095L244.809 467.445L209.683 488.375V487.095Z" fill="#1B7357"/>
<path d="M209.683 495.838L76.1852 418.767V402.55L209.683 479.62V495.838Z" fill="#1B7357"/>
<g opacity="0.15">
<path opacity="0.15" d="M209.683 495.838L76.1852 418.767V402.55L209.683 479.62V495.838Z" fill="black"/>
</g>
<g style="mix-blend-mode:multiply" opacity="0.3">
<g style="mix-blend-mode:multiply" opacity="0.3">
<path d="M209.683 483.232L202.65 479.62L209.683 484.213V483.232Z" fill="black"/>
</g>
</g>
<g style="mix-blend-mode:multiply" opacity="0.3">
<g style="mix-blend-mode:multiply" opacity="0.3">
<path d="M209.683 487.095L174.353 467.349L209.683 488.375V487.095Z" fill="black"/>
</g>
</g>
<g style="mix-blend-mode:multiply" opacity="0.3">
<g style="mix-blend-mode:multiply" opacity="0.3">
<path d="M76.1852 410.18L100.775 424.855L76.1852 411.137V410.18Z" fill="black"/>
</g>
</g>
<g style="mix-blend-mode:multiply" opacity="0.3">
<g style="mix-blend-mode:multiply" opacity="0.3">
<path d="M76.1852 414.259L90.2382 422.834L76.1852 415.167V414.259Z" fill="black"/>
</g>
</g>
<path d="M221.308 406.568L152.239 446.455L131.165 434.292L200.234 394.393L221.308 406.568Z" fill="#FAFAFA"/>
<path d="M131.165 434.292V451.944L152.239 464.108V446.455L131.165 434.292Z" fill="#EBEBEB"/>
<path d="M152.239 464.108L153.471 463.39L152.239 462.685V464.108Z" fill="#E0E0E0"/>
<path d="M221.308 406.568V409.259L218.976 407.908L221.308 406.568Z" fill="#E0E0E0"/>
<g style="mix-blend-mode:multiply" opacity="0.3">
<g style="mix-blend-mode:multiply" opacity="0.3">
<path d="M153.471 463.378V447.172L152.239 446.455V462.673L153.471 463.378Z" fill="black"/>
</g>
</g>
<g style="mix-blend-mode:multiply" opacity="0.2">
<g style="mix-blend-mode:multiply" opacity="0.2">
<path d="M153.471 447.172L220.219 408.625L218.976 407.908L152.239 446.455L153.471 447.172Z" fill="black"/>
</g>
</g>
<path d="M219.047 405.253L149.954 445.139L148.208 444.123L217.277 404.248L219.047 405.253Z" fill="#455A64"/>
<path d="M204.277 396.737L135.196 436.612L133.45 435.607L202.519 395.732L204.277 396.737Z" fill="#455A64"/>
<path d="M149.954 445.139V462.792L148.208 461.776V444.123L149.954 445.139Z" fill="#212121"/>
<path d="M135.196 436.612V454.265L133.438 453.248L133.45 435.607L135.196 436.612Z" fill="#212121"/>
<path d="M276.431 421.973L142.934 344.902L76.1852 383.438L209.683 460.508L276.431 421.973Z" fill="#1B7357"/>
<path opacity="0.15" d="M83.2057 383.438L209.683 456.394L269.411 421.913L142.934 348.957L83.2057 383.438ZM86.722 383.438L142.934 350.99L265.895 421.973L209.683 454.432L86.722 383.438Z" fill="black"/>
<g opacity="0.15">
<path opacity="0.15" d="M178.802 422.666C169.7 422.666 160.372 420.561 153.172 416.411C146.163 412.369 142.157 406.843 142.157 401.27C142.157 396.163 145.446 391.439 151.414 387.994C164.175 380.627 185.715 381.082 199.445 389.011C206.442 393.053 210.46 398.579 210.46 404.152C210.46 409.259 207.171 413.971 201.203 417.428C195.235 420.884 187.066 422.666 178.802 422.666ZM173.815 383.916C165.766 383.916 157.92 385.602 152.012 389.023C146.426 392.24 143.353 396.594 143.353 401.258C143.353 406.401 147.144 411.544 153.77 415.359C167.165 423.097 188.179 423.551 200.605 416.375C206.19 413.146 209.264 408.805 209.264 404.14C209.264 398.998 205.473 393.855 198.847 390.028C191.814 385.985 182.689 383.916 173.815 383.916Z" fill="black"/>
</g>
<g opacity="0.1">
<path opacity="0.1" d="M178.802 418.361C170.155 418.361 161.604 416.28 155.336 412.668C149.703 409.415 146.474 405.265 146.474 401.27C146.474 397.766 148.998 394.381 153.578 391.702C158.805 388.688 165.993 387.026 173.815 387.026C182.462 387.026 191.013 389.095 197.28 392.719C202.913 395.972 206.143 400.122 206.143 404.116C206.143 407.621 203.619 411.005 199.038 413.684C193.812 416.698 186.576 418.361 178.802 418.361Z" fill="black"/>
</g>
<path opacity="0.1" d="M202.65 447.304L165.957 425.991L168.899 426.374C171.525 426.71 174.169 426.877 176.817 426.876C185.74 426.715 194.494 424.41 202.339 420.155C208.834 416.411 215.388 409.702 215.388 403.16C215.372 400.886 214.867 398.642 213.905 396.582L213.115 394.871L253.301 418.193L248.9 420.741C248.586 420.866 248.311 421.071 248.101 421.335C247.892 421.6 247.754 421.914 247.704 422.248C247.75 422.584 247.885 422.902 248.096 423.169C248.306 423.436 248.583 423.643 248.9 423.767L253.313 426.314L216.703 447.304L212.888 445.103C211.889 444.603 210.788 444.342 209.671 444.342C208.554 444.342 207.452 444.603 206.454 445.103L202.65 447.304Z" fill="black"/>
<path d="M218.868 432.402C216.733 432.434 214.625 431.92 212.745 430.907C211.982 430.559 211.324 430.017 210.837 429.334C210.35 428.652 210.051 427.854 209.97 427.02C210.022 426.284 210.271 425.575 210.692 424.969C211.113 424.363 211.69 423.881 212.362 423.575C214.163 422.707 216.143 422.275 218.142 422.314C220.141 422.354 222.102 422.864 223.867 423.803C224.63 424.151 225.287 424.693 225.774 425.375C226.261 426.057 226.561 426.855 226.642 427.69C226.593 428.427 226.344 429.136 225.923 429.743C225.501 430.349 224.923 430.83 224.25 431.134C222.595 432.011 220.741 432.448 218.868 432.402Z" fill="#1B7357"/>
<path opacity="0.1" d="M139.585 410.527L99.4833 387.42L103.885 384.873C104.199 384.75 104.476 384.545 104.686 384.281C104.896 384.016 105.032 383.7 105.081 383.366C105.081 382.816 104.674 382.289 103.885 381.859L99.4713 379.299L136.021 358.489L139.824 360.702C140.823 361.194 141.922 361.45 143.036 361.45C144.149 361.45 145.248 361.194 146.247 360.702L150.062 358.501L186.743 379.622L183.777 379.24C181.148 378.899 178.499 378.728 175.848 378.725C167.153 378.725 156.772 381.357 150.002 385.267C141.559 390.147 137.277 395.374 137.277 400.815C137.307 403.561 137.829 406.279 138.82 408.841L139.585 410.527Z" fill="black"/>
<path d="M134.801 384.095C132.662 384.126 130.551 383.612 128.666 382.6C127.905 382.251 127.25 381.708 126.765 381.026C126.281 380.344 125.983 379.546 125.903 378.713C125.952 377.975 126.2 377.263 126.621 376.654C127.042 376.046 127.621 375.563 128.295 375.257C130.097 374.39 132.077 373.96 134.076 374.002C136.075 374.043 138.036 374.555 139.8 375.496C140.559 375.845 141.213 376.386 141.698 377.066C142.183 377.746 142.481 378.54 142.563 379.371C142.515 380.11 142.266 380.822 141.845 381.43C141.424 382.039 140.845 382.522 140.171 382.828C138.519 383.703 136.67 384.139 134.801 384.095Z" fill="#1B7357"/>
<path d="M276.431 421.973V438.202L209.683 476.738V460.508L276.431 421.973Z" fill="#1B7357"/>
<g opacity="0.4">
<path opacity="0.4" d="M276.431 421.973V438.202L209.683 476.738V460.508L276.431 421.973Z" fill="white"/>
</g>
<path d="M209.683 464.132L230.756 452.399L209.683 465.112V464.132Z" fill="#1B7357"/>
<path d="M276.432 429.687L269.399 434.148L276.432 430.5V429.687Z" fill="#1B7357"/>
<path d="M276.431 433.55L241.305 454.432L276.431 434.746V433.55Z" fill="#1B7357"/>
<path d="M209.683 467.995L244.809 448.345L209.683 469.263V467.995Z" fill="#1B7357"/>
<path d="M209.683 476.738L76.1852 399.667V383.438L209.683 460.508V476.738Z" fill="#1B7357"/>
<g opacity="0.15">
<path opacity="0.15" d="M209.683 476.738L76.1852 399.667V383.438L209.683 460.508V476.738Z" fill="black"/>
</g>
<g style="mix-blend-mode:multiply" opacity="0.3">
<g style="mix-blend-mode:multiply" opacity="0.3">
<path d="M209.683 464.132L202.65 460.508L209.683 465.112V464.132Z" fill="black"/>
</g>
</g>
<g style="mix-blend-mode:multiply" opacity="0.3">
<g style="mix-blend-mode:multiply" opacity="0.3">
<path d="M209.683 467.995L174.353 448.249L209.683 469.263V467.995Z" fill="black"/>
</g>
</g>
<g style="mix-blend-mode:multiply" opacity="0.3">
<g style="mix-blend-mode:multiply" opacity="0.3">
<path d="M76.1852 391.08L100.775 405.755L76.1852 392.037V391.08Z" fill="black"/>
</g>
</g>
<g style="mix-blend-mode:multiply" opacity="0.3">
<g style="mix-blend-mode:multiply" opacity="0.3">
<path d="M76.1852 395.158L90.2382 403.722L76.1852 396.067V395.158Z" fill="black"/>
</g>
</g>
<path d="M221.308 387.456L152.239 427.343L131.165 415.179L200.234 375.293L221.308 387.456Z" fill="#FAFAFA"/>
<path d="M131.165 415.179V432.832L152.239 444.996V427.343L131.165 415.179Z" fill="#EBEBEB"/>
<path d="M152.239 444.996L153.471 444.29L152.239 443.572V444.996Z" fill="#E0E0E0"/>
<path d="M221.308 387.456V390.159L218.976 388.808L221.308 387.456Z" fill="#E0E0E0"/>
<g style="mix-blend-mode:multiply" opacity="0.3">
<g style="mix-blend-mode:multiply" opacity="0.3">
<path d="M153.471 444.278V428.06L152.239 427.343V443.572L153.471 444.278Z" fill="black"/>
</g>
</g>
<g style="mix-blend-mode:multiply" opacity="0.2">
<g style="mix-blend-mode:multiply" opacity="0.2">
<path d="M153.471 428.06L220.219 389.525L218.976 388.808L152.239 427.343L153.471 428.06Z" fill="black"/>
</g>
</g>
<path d="M219.047 386.153L149.954 426.027L148.208 425.023L217.277 385.136L219.047 386.153Z" fill="#455A64"/>
<path d="M204.277 377.637L135.196 417.512L133.45 416.495L202.519 376.62L204.277 377.637Z" fill="#455A64"/>
<path d="M149.954 426.027V443.692L148.208 442.675V425.023L149.954 426.027Z" fill="#212121"/>
<path d="M135.196 417.512V435.165L133.438 434.148L133.45 416.495L135.196 417.512Z" fill="#212121"/>
</svg>
