<svg width="28" height="29" viewBox="0 0 28 29" fill="none" xmlns="http://www.w3.org/2000/svg">
<g clip-path="url(#clip0_286_849)">
<path d="M26.0288 0.298828C25.3492 0.298828 24.4847 0.383143 23.463 0.551772C22.3998 0.725086 21.6647 0.926505 21.2209 1.1654C20.7771 1.40429 20.1114 2.00386 19.1822 2.99222C18.2808 3.95247 17.1296 5.45608 15.752 7.46558C14.379 9.46571 13.1724 11.4143 12.1554 13.2552C11.2447 14.904 10.3201 16.7121 9.39551 18.642C8.7483 17.8082 8.06411 17.1384 7.36142 16.6512C6.4692 16.0282 5.61396 15.7144 4.82344 15.7144C4.01443 15.7144 3.13146 16.0704 2.19763 16.7777C1.22219 17.5178 0.727539 18.3562 0.727539 19.2696C0.727539 19.9582 1.14822 20.7592 2.01733 21.7241C3.27939 23.1247 4.29643 24.4269 5.04534 25.5933C5.60009 26.4598 5.9838 27.0079 6.21032 27.2655C6.4692 27.5559 6.79743 27.7761 7.19038 27.9213C7.56483 28.0571 8.18893 28.1274 9.09964 28.1274C10.3478 28.1274 11.1984 27.9915 11.6977 27.7152C12.197 27.4388 12.5946 27.0407 12.8719 26.5441C13.1262 26.0945 13.5191 25.1904 14.0785 23.7899C15.47 20.2721 17.3654 16.595 19.7046 12.8524C22.0392 9.12377 24.3275 6.19618 26.5003 4.16325C27.0319 3.67142 27.3602 3.32479 27.522 3.06248C27.7069 2.77206 27.7993 2.43012 27.7993 2.0507C27.7993 1.57292 27.6329 1.15603 27.3047 0.818769C26.9811 0.472142 26.5512 0.298828 26.0288 0.298828Z" fill="black"/>
</g>
<defs>
<clipPath id="clip0_286_849">
<rect width="27.0764" height="27.8285" fill="white" transform="translate(0.727539 0.298828)"/>
</clipPath>
</defs>
</svg>
