<svg width="28" height="36" viewBox="0 0 28 36" fill="none" xmlns="http://www.w3.org/2000/svg">
<g clip-path="url(#clip0_286_844)">
<path d="M24.931 16.8709H24.1055V13.1394C24.1055 7.56901 19.6005 3.034 14.0704 3.034C8.53491 3.034 4.03529 7.56901 4.03529 13.1448V16.8763H3.20982C1.52651 16.8709 0.156128 18.2514 0.156128 19.95V34.5526C0.156128 36.2512 1.52651 37.6317 3.20982 37.6317H24.9256C26.6089 37.6317 27.9793 36.2512 27.9793 34.5526V19.95C27.9847 18.2514 26.6143 16.8709 24.931 16.8709ZM15.3491 27.4508V29.3597C15.3491 29.6455 15.1225 29.8774 14.8365 29.8774H13.2989C13.0183 29.8774 12.7863 29.6455 12.7863 29.3597V27.4508C12.085 27.014 11.6156 26.2429 11.6156 25.3531C11.6156 23.9889 12.7108 22.8834 14.065 22.8834C15.4192 22.8834 16.5144 23.9889 16.5144 25.3531C16.5198 26.2429 16.0451 27.014 15.3491 27.4508ZM19.703 16.8709H8.4324V13.1394C8.4324 10.0064 10.9574 7.46116 14.0704 7.46116C17.178 7.46116 19.703 10.0064 19.703 13.1394V16.8709Z" fill="black"/>
</g>
<defs>
<clipPath id="clip0_286_844">
<rect width="27.8285" height="34.5977" fill="white" transform="translate(0.156128 0.777618)"/>
</clipPath>
</defs>
</svg>
