<svg width="65" height="60" viewBox="0 0 65 60" fill="none" xmlns="http://www.w3.org/2000/svg">
<path fill-rule="evenodd" clip-rule="evenodd" d="M42.0885 4.79022C42.8197 3.32438 42.2475 1.49866 40.8105 0.712346C39.3734 -0.0739652 37.6157 0.476901 36.8844 1.94274L31.4295 12.8775L25.6356 2.11077C24.8594 0.668256 23.0865 0.173864 21.6758 1.00651C20.2651 1.83916 19.7507 3.68354 20.527 5.12606L28.7902 20.4816C29.0464 21.1301 29.5184 21.6956 30.166 22.0499C31.603 22.8362 33.3608 22.2854 34.092 20.8195L42.0885 4.79022Z" fill="#FAFAFA"/>
<path fill-rule="evenodd" clip-rule="evenodd" d="M21.2193 55.2776C20.488 56.7435 21.0602 58.5692 22.4973 59.3555C23.9343 60.1418 25.6921 59.591 26.4233 58.1251L31.8783 47.1904L37.6721 57.9571C38.4484 59.3996 40.2212 59.894 41.632 59.0614C43.0427 58.2287 43.557 56.3843 42.7807 54.9418L34.5175 39.5862C34.2613 38.9378 33.7894 38.3723 33.1418 38.018C31.7047 37.2317 29.9469 37.7825 29.2157 39.2484L21.2193 55.2776Z" fill="black"/>
<path fill-rule="evenodd" clip-rule="evenodd" d="M38.0773 25.1092C38.1627 26.0504 38.671 26.9446 39.5197 27.4702C40.3762 28.0006 41.3799 28.0318 42.2131 27.6455L58.1796 26.9403C59.8162 26.868 61.0894 25.4825 61.0235 23.8457C60.9576 22.209 59.5775 20.9407 57.941 21.013L46.2778 21.5281L52.2829 10.8919C53.0882 9.46543 52.6121 7.60991 51.2194 6.74747C49.8267 5.88504 48.0448 6.34227 47.2395 7.76874L38.7067 22.882C38.2742 23.4226 38.0269 24.1153 38.0569 24.8601C38.0603 24.9442 38.0671 25.0272 38.0773 25.1092Z" fill="black"/>
<path fill-rule="evenodd" clip-rule="evenodd" d="M23.9568 35.6329C23.7355 34.9468 23.2794 34.3349 22.6268 33.9403C21.7154 33.3892 20.6453 33.3976 19.7907 33.8651L4.05343 34.5601C2.41692 34.6324 1.14369 36.0179 1.2096 37.6547C1.27551 39.2915 2.6556 40.5597 4.29211 40.4875L15.9163 39.9741L10.0271 50.657C9.23621 52.0915 9.73148 53.9416 11.1333 54.7892C12.535 55.6368 14.3125 55.161 15.1034 53.7264L23.2845 38.8861C23.8646 38.317 24.2114 37.5145 24.1762 36.6403C24.1618 36.2836 24.0851 35.9445 23.9568 35.6329Z" fill="#FAFAFA"/>
<path fill-rule="evenodd" clip-rule="evenodd" d="M49.7261 53.9292C50.5754 55.3299 52.3696 55.7301 53.7337 54.823C55.0977 53.9159 55.515 52.045 54.6657 50.6443L48.3561 40.2377L60.0527 40.365C61.6907 40.3828 63.0318 39.0694 63.048 37.4314C63.0643 35.7933 61.7496 34.451 60.1115 34.4332L44.1449 34.2594C43.2906 33.8763 42.2666 33.9313 41.4116 34.4998C40.3208 35.2252 39.8354 36.567 40.1191 37.7917C40.2138 38.2688 40.4231 38.7052 40.7173 39.0707L49.7261 53.9292Z" fill="#FAFAFA"/>
<path fill-rule="evenodd" clip-rule="evenodd" d="M14.7316 7.5712C13.8823 6.17044 12.088 5.77026 10.724 6.67736C9.35997 7.58446 8.94269 9.45535 9.79198 10.8561L16.1015 21.2627L4.40488 21.1354C2.76687 21.1176 1.42582 22.431 1.40957 24.069C1.39331 25.7071 2.70801 27.0494 4.34603 27.0672L20.3127 27.241C21.1671 27.6241 22.1911 27.5691 23.0461 27.0006C24.1377 26.2746 24.6229 24.9315 24.338 23.706C24.243 23.2302 24.0341 22.7949 23.7406 22.4301L14.7316 7.5712Z" fill="black"/>
</svg>
