<svg width="87" height="82" viewBox="0 0 87 82" fill="none" xmlns="http://www.w3.org/2000/svg">
<path fill-rule="evenodd" clip-rule="evenodd" d="M56.605 6.95663C57.5912 4.97982 56.8196 2.51766 54.8816 1.45725C52.9436 0.396845 50.5731 1.13974 49.5869 3.11655L42.2305 17.863L34.417 3.34315C33.3701 1.3978 30.9792 0.731066 29.0768 1.85397C27.1743 2.97687 26.4807 5.46418 27.5275 7.40954L38.6711 28.1177C39.0166 28.9923 39.6531 29.7549 40.5265 30.2328C42.4645 31.2932 44.835 30.5504 45.8212 28.5735L56.605 6.95663Z" fill="#1B7357"/>
<path fill-rule="evenodd" clip-rule="evenodd" d="M28.4613 75.0434C27.4752 77.0202 28.2468 79.4823 30.1848 80.5427C32.1228 81.6032 34.4933 80.8603 35.4794 78.8835L42.8359 64.137L50.6494 78.6568C51.6962 80.6022 54.0871 81.2689 55.9896 80.146C57.892 79.0231 58.5857 76.5358 57.5388 74.5905L46.3952 53.8823C46.0498 53.0077 45.4133 52.2451 44.5398 51.7672C42.6018 50.7068 40.2313 51.4496 39.2452 53.4265L28.4613 75.0434Z" fill="black"/>
<path fill-rule="evenodd" clip-rule="evenodd" d="M51.1957 34.3583C51.3109 35.6277 51.9964 36.8338 53.1409 37.5425C54.296 38.2578 55.6496 38.3 56.7733 37.779L78.3056 36.828C80.5125 36.7305 82.2296 34.862 82.1407 32.6547C82.0518 30.4473 80.1907 28.737 77.9837 28.8344L62.2549 29.5291L70.3532 15.1853C71.4393 13.2616 70.7972 10.7592 68.919 9.59617C67.0409 8.4331 64.6378 9.04972 63.5517 10.9734L52.0446 31.355C51.4612 32.0841 51.1278 33.0183 51.1683 34.0227C51.1728 34.1359 51.182 34.2478 51.1957 34.3583Z" fill="black"/>
<path fill-rule="evenodd" clip-rule="evenodd" d="M32.153 48.5506C31.8545 47.6254 31.2394 46.8002 30.3593 46.2681C29.1303 45.5249 27.6871 45.5362 26.5346 46.1667L5.31156 47.104C3.10457 47.2015 1.38751 49.0699 1.4764 51.2773C1.56528 53.4846 3.42645 55.195 5.63344 55.0975L21.3096 54.4052L13.3675 68.812C12.301 70.7466 12.9689 73.2416 14.8593 74.3846C16.7497 75.5277 19.1468 74.886 20.2133 72.9514L31.2463 52.9379C32.0286 52.1705 32.4963 51.0883 32.4489 49.9093C32.4295 49.4283 32.326 48.9708 32.153 48.5506Z" fill="#1B7357"/>
<path fill-rule="evenodd" clip-rule="evenodd" d="M66.9052 73.2249C68.0505 75.114 70.4702 75.6536 72.3097 74.4303C74.1493 73.207 74.712 70.684 73.5667 68.7949L65.0576 54.7607L80.8316 54.9324C83.0406 54.9564 84.8491 53.1852 84.871 50.9761C84.893 48.7671 83.12 46.9568 80.911 46.9328L59.3785 46.6985C58.2263 46.1818 56.8453 46.2559 55.6923 47.0227C54.2206 48.0014 53.5661 49.8121 53.9498 51.4645C54.0778 52.1068 54.3597 52.6943 54.7558 53.1865L66.9052 73.2249Z" fill="#1B7357"/>
<path fill-rule="evenodd" clip-rule="evenodd" d="M19.7119 10.707C18.5666 8.818 16.1469 8.27831 14.3074 9.50162C12.4679 10.7249 11.9051 13.248 13.0505 15.137L21.5595 29.1712L5.78554 28.9995C3.57653 28.9755 1.76801 30.7468 1.74609 32.9558C1.72417 35.1648 3.49716 36.9751 5.70617 36.9992L27.2386 37.2335C28.3908 37.7501 29.7718 37.676 30.9248 36.9092C32.3965 35.9305 33.051 34.1199 32.6673 32.4675C32.5393 31.8252 32.2574 31.2376 31.8613 30.7454L19.7119 10.707Z" fill="black"/>
</svg>
